<?xml version="1.0" encoding="UTF-8" standalone="no"?><!DOCTYPE svg PUBLIC "-//W3C//DTD SVG 1.1//EN" "http://www.w3.org/Graphics/SVG/1.1/DTD/svg11.dtd"><svg width="100%" height="100%" viewBox="0 0 7270 2968" version="1.1" xmlns="http://www.w3.org/2000/svg" xmlns:xlink="http://www.w3.org/1999/xlink" xml:space="preserve" xmlns:serif="http://www.serif.com/" style="fill-rule:evenodd;clip-rule:evenodd;stroke-linecap:round;stroke-linejoin:round;stroke-miterlimit:1.5;"><path d="M6065.29,1043.4c125.828,89.541 260.234,183.747 377.485,268.623c109.412,79.201 229.568,147.889 326.022,240.631c96.454,92.743 199.037,240.993 252.702,315.825c29.161,40.662 37.123,94.836 69.289,133.164c34.033,40.555 105.668,80.417 134.912,110.162c18.563,18.882 48.397,49.133 40.551,68.307c-7.846,19.173 -57.7,32.587 -87.629,46.735c-31.287,14.79 -73.367,29.414 -100.092,42.006c-20.795,9.798 -69.832,15.342 -60.257,33.543c9.576,18.2 92.892,54.605 117.708,75.66c15.124,12.831 30.709,32.766 31.192,50.669c0.482,17.902 -12.487,42.715 -28.295,56.745c-16.567,14.704 -45.561,27.093 -71.109,31.478c-33.688,5.782 -87.333,3.439 -131.018,3.216c-50.196,-0.257 -113.417,-4.387 -170.157,-4.756c-101.382,-0.66 -350.368,1.772 -438.134,0.795c-29.569,-0.329 -60.371,-8.474 -88.463,-6.656c-27.272,1.766 -52.776,16.514 -80.085,17.567c-54.914,2.116 -169.257,1.746 -249.397,-4.868c-77.751,-6.417 -177.132,-23.317 -231.443,-34.815c-32.747,-6.933 -61.779,-26.778 -94.424,-34.175c-53.493,-12.121 -163.131,-31.6 -226.531,-38.548c-50.994,-5.589 -105.897,-21.326 -153.867,-3.145c-69.42,26.31 -174.123,108.972 -262.655,161.007c-91.238,53.626 -234.612,137.785 -284.772,160.747c-8.518,3.9 -6.917,-24.335 -16.186,-22.975c-18.283,2.684 -63.919,22.787 -93.517,39.076c-61.588,33.895 -188.349,128.264 -276.014,164.295c-78.713,32.352 -233.442,54.148 -249.976,51.893c-16.533,-2.255 104.612,-35.918 150.772,-65.424c61.589,-39.368 199.422,-146.028 218.758,-170.786c19.336,-24.758 -93.226,24.693 -102.742,22.24c-9.515,-2.453 65.15,-38.696 45.649,-36.959c-32.484,2.894 -161.136,33.106 -240.556,54.321c-88.82,23.727 -204.278,76.024 -292.363,88.036c-78.171,10.661 -230.166,-9.381 -236.145,-15.962c-5.979,-6.582 136.545,-2.149 200.271,-23.525c64.612,-21.674 138.53,-57.193 187.397,-106.515c48.868,-49.322 63.475,-130.781 105.807,-189.42c44.471,-61.602 93.933,-135.603 161.018,-180.19c67.4,-44.796 176.054,-70.617 243.384,-88.587c52.091,-13.902 107.064,-25.643 160.596,-19.23c76.291,9.139 200.27,44.409 297.149,74.069c96.423,29.52 284.125,103.889 284.125,103.889c0,-0 -187.702,-74.369 -284.125,-103.889c-96.879,-29.66 -201.674,-59.606 -297.149,-74.069c-90.959,-13.78 -186.021,-6.571 -275.699,-12.713c-87.619,-6 -202.53,-13.034 -262.366,-24.137c-34.6,-6.42 -72.071,-55.721 -96.65,-42.479c-24.579,13.243 -27.354,84.677 -50.825,121.935c-24.293,38.562 -79.112,106.998 -94.934,109.438c-15.823,2.44 11.838,-96.992 -0,-94.796c-11.839,2.196 -45.138,76.482 -71.031,107.973c-24.751,30.103 -61.104,66.937 -84.328,80.978c-15.72,9.505 -49.122,14.877 -55.013,3.269c-5.892,-11.608 9.226,-50.595 19.663,-72.917c10.437,-22.322 51.833,-66.892 42.959,-61.014c-8.873,5.877 -62.137,70.142 -96.2,96.28c-32.783,25.156 -80.445,53.434 -108.175,60.548c-19.658,5.043 -55.287,-2.583 -58.203,-17.866c-2.917,-15.283 58.248,-79.049 40.702,-73.831c-17.545,5.218 -103.319,82.849 -145.978,105.14c-33.57,17.542 -84.406,25.235 -109.971,28.608c-14.614,1.928 -44.201,2.432 -43.421,-8.371c0.781,-10.803 36.184,-39.413 48.104,-56.446c9.823,-14.037 34.008,-49.412 23.418,-45.753c-10.59,3.66 -54.915,49.741 -86.957,67.71c-33.254,18.648 -81.807,38.618 -112.564,44.181c-23.874,4.318 -62.626,-0.747 -71.978,-10.804c-9.352,-10.057 30.972,-52.259 15.869,-49.537c-15.104,2.722 -74.261,49.49 -106.49,65.87c-27.557,14.006 -58.743,26.685 -86.887,32.41c-26.787,5.448 -55.306,-4.025 -81.983,1.939c-32.544,7.277 -76.25,29.149 -113.284,41.721c-35.99,12.217 -73.588,19.716 -108.924,33.711c-40.954,16.219 -98.075,48.616 -136.801,63.605c-30.81,11.925 -65.316,13.014 -95.553,26.329c-33.095,14.574 -68.757,45.834 -103.019,61.114c-32.577,14.529 -100.516,40.176 -102.552,30.567c-2.037,-9.608 59.703,-59.351 90.332,-88.216c31.163,-29.369 72.209,-51.924 96.643,-87.994c30.493,-45.015 62.577,-119.262 86.321,-182.101c26.07,-68.996 42.981,-162.16 70.098,-231.87c25.151,-64.656 64.59,-139.983 92.602,-186.391c20.506,-33.971 41.649,-71.4 75.474,-92.056c33.825,-20.656 84.258,-24.751 127.474,-31.88c61.134,-10.086 159.435,-37.132 239.331,-28.636c123.478,13.13 334.723,69.954 501.54,107.415c176.014,39.526 554.541,129.738 554.541,129.738c-0,0 -378.527,-90.212 -554.541,-129.738c-166.817,-37.461 -378.11,-86.832 -501.54,-107.415c-78.772,-13.136 -159.181,-15.654 -239.039,-16.085c-100.32,-0.542 -287.291,7.116 -362.876,12.832c-30.96,2.342 -63.734,5.968 -90.637,21.467c-46.287,26.665 -122.666,95.268 -187.085,138.527c-73.695,49.488 -168.802,107.676 -255.084,158.401c-94.202,55.382 -199.798,130.611 -310.131,173.892c-121.548,47.679 -282.023,82.315 -419.152,112.184c-133.258,29.025 -273.813,62.47 -403.62,67.025c-125.694,4.41 -274.058,-15.206 -375.22,-39.698c-82.731,-20.029 -235.918,-94.748 -231.75,-107.251c4.169,-12.504 170.503,32.635 256.761,32.229c95.788,-0.451 223.794,-8.064 317.967,-34.935c88.943,-25.379 192.65,-51.506 247.072,-126.293c60.48,-83.112 100.709,-256.945 115.805,-372.377c13.885,-106.165 -5.602,-214.96 -25.226,-320.215c-20.958,-112.413 -63.859,-260.595 -100.525,-354.262c-29.118,-74.387 -76.478,-156.262 -119.468,-207.746c-36.639,-43.876 -98.149,-75.387 -138.477,-101.156c-32.717,-20.906 -75.235,-31.924 -103.486,-53.456c-26.637,-20.301 -36.476,-59.966 -66.023,-75.734c-52.179,-27.847 -173.786,-59.025 -247.051,-91.344c-66.531,-29.349 -200.232,-89.201 -192.534,-102.57c7.698,-13.369 174.458,12.405 238.722,22.356c49.916,7.729 97.287,27.655 146.86,37.347c51.221,10.013 112.957,13.311 160.464,22.733c42.206,8.372 98.947,30.598 124.579,33.803c10.798,1.35 18.514,-16.566 29.212,-14.575c61.552,11.453 269.725,67.444 340.096,83.296c26.982,6.079 56.024,2.681 82.128,11.821c60.826,21.295 204.078,81.911 282.827,115.953c64.013,27.673 147.85,73.856 189.668,88.302c19.3,6.668 41.853,-8.049 61.235,-1.625c40.895,13.553 124.505,51.699 184.131,82.945c77.052,40.377 204.691,133.152 278.182,159.318c51.117,18.201 108.893,4.166 162.765,-2.319c65.324,-7.865 210.829,-13.531 229.182,-44.867c18.352,-31.337 -90.034,-88.296 -119.065,-143.154c-32.794,-61.967 -57.193,-158.169 -77.697,-228.652c-18.573,-63.841 -21.965,-132.501 -45.332,-194.244c-23.367,-61.743 -57.813,-132.253 -94.871,-176.214c-33.225,-39.413 -84.404,-62.21 -127.478,-87.549c-41.94,-24.673 -130.419,-56.697 -130.963,-64.484c-0.544,-7.787 92.345,12.619 127.697,17.762c28.179,4.1 57.223,4.652 84.417,13.097c32.679,10.148 93.036,45.685 111.655,47.793c11.64,1.318 -11.46,-33.015 0.059,-35.144c18.126,-3.349 86.611,15.709 108.696,15.046c10.156,-0.305 13.659,-18.7 23.814,-19.025c20.573,-0.657 82.205,19.827 99.628,15.081c14.097,-3.841 -9.542,-41.39 4.908,-43.559c29.443,-4.418 133.474,20.579 171.75,17.047c23.033,-2.126 38.074,-31.821 57.904,-38.244c19.367,-6.273 41.574,-6.145 61.073,-0.294c20.925,6.278 57.59,38.599 64.481,37.967c6.891,-0.633 -31.292,-28.096 -23.137,-41.762c8.879,-14.879 57.133,-40.051 76.409,-47.51c12.231,-4.732 28.03,-4.037 39.246,2.759c17.166,10.402 52.459,52.607 63.746,59.649c5.047,3.149 6.287,-11.913 3.979,-17.395c-4.371,-10.383 -31.481,-31.345 -30.203,-44.902c1.278,-13.556 21.706,-29.688 37.871,-36.438c18.33,-7.654 49.638,-18.582 72.112,-9.486c24.594,9.954 67.576,67.733 75.453,69.214c7.877,1.482 -30.49,-42.624 -28.192,-60.324c2.298,-17.7 24.588,-36.523 41.979,-45.875c17.392,-9.353 43.123,-18.806 62.371,-10.239c22.913,10.198 67.671,69.091 75.108,71.428c7.436,2.336 -34.687,-40.432 -30.489,-57.409c4.198,-16.977 36.255,-36.006 55.676,-44.453c18.697,-8.131 42.27,-14.623 60.849,-6.226c22.714,10.266 66.74,64.734 75.434,67.821c8.694,3.088 -22.72,-33.447 -23.271,-49.297c-0.551,-15.85 9.064,-36.198 19.965,-45.802c10.902,-9.605 30.029,-11.364 45.443,-11.824c15.414,-0.459 33.135,1.218 47.042,9.067c15.573,8.791 35.309,32.972 46.395,43.676c6.896,6.658 19.957,24.959 20.119,20.547c0.163,-4.411 -20.097,-33.543 -19.143,-47.016c0.953,-13.472 12.923,-26.575 24.864,-33.82c11.941,-7.244 30.915,-8.348 46.785,-9.647c17.381,-1.422 42.15,-7.343 57.505,1.112c15.356,8.455 23.386,35.088 34.625,49.617c10.171,13.149 26.67,34.066 32.808,37.558c4.95,2.816 6.285,-11.378 4.022,-16.604c-4.816,-11.119 -26.288,-36.472 -32.917,-50.11c-4.729,-9.728 -11.408,-24.12 -6.856,-31.717c4.553,-7.597 22.256,-10.843 34.17,-13.865c13.963,-3.542 34.994,-6.959 49.606,-7.386c12.784,-0.374 27.624,-2.562 38.063,4.826c13.916,9.847 34.047,37.876 45.428,54.257c9.435,13.581 20.453,43.738 22.859,44.031c2.405,0.292 -4.387,-29.766 -8.424,-42.278c-3.725,-11.546 -13.732,-22.431 -15.794,-32.79c-1.924,-9.665 -4.122,-23.024 3.423,-29.363c7.671,-6.447 28.218,-7.235 42.606,-9.314c15.362,-2.22 36.522,-5.639 49.569,-4.005c10.536,1.319 20.319,7.297 28.71,13.805c9.293,7.208 20,18.196 27.048,29.443c7.049,11.247 10.442,27.064 15.244,38.04c4.134,9.449 12.192,29.603 13.565,27.811c1.373,-1.793 -2.019,-26.017 -5.327,-38.566c-3.499,-13.276 -14.541,-29.296 -15.671,-41.092c-0.984,-10.281 0.856,-23.197 8.896,-29.68c8.897,-7.173 29.086,-11.746 44.484,-13.36c16.807,-1.761 42.26,0.279 56.357,2.791c10.101,1.801 20.816,5.186 28.225,12.284c11.093,10.628 29.591,36.763 38.334,51.485c6.716,11.309 11.701,36.229 14.122,36.844c2.421,0.615 3.679,-22.598 0.402,-33.154c-3.863,-12.444 -20.461,-29.932 -23.582,-41.515c-2.462,-9.143 -2.606,-22.165 4.861,-27.987c9.586,-7.473 34.47,-14.994 52.653,-16.852c18.183,-1.858 40.663,-4.714 56.444,5.705c16.426,10.844 29.76,41.875 42.113,59.359c10.707,15.156 31.129,52.776 32.005,45.548c0.877,-7.228 -35.365,-72.659 -26.748,-88.915c8.618,-16.256 54.818,-14.199 78.455,-8.619c23.636,5.58 46.226,23.41 63.366,42.099c18.736,20.428 43.606,78.868 49.044,80.468c5.438,1.6 -11.55,-49.876 -16.416,-70.869c-4.256,-18.363 -20.016,-43.429 -12.778,-55.088c7.239,-11.659 37.703,-14.486 56.209,-14.863c18.506,-0.378 40.04,3.665 54.826,12.595c14.786,8.93 25.426,25.41 33.892,40.985c12.099,22.262 35.98,93.243 38.702,92.583c2.722,-0.659 -26.724,-74.431 -22.369,-96.539c3.895,-19.775 30.446,-31.14 48.499,-36.109c18.054,-4.968 44.095,-1.957 59.821,6.296c15.726,8.253 26.071,26.838 34.536,43.222c11.277,21.825 28.898,83.6 33.125,87.727c4.226,4.128 -6.707,-44.928 -7.766,-62.963c-0.884,-15.063 -12.227,-38.798 1.416,-45.245c14.107,-6.667 59.683,-2.446 83.227,5.242c22.494,7.345 36.118,33.45 58.034,40.883c21.916,7.434 52.284,-1.095 73.461,3.719c19.246,4.376 38.484,12.864 53.597,25.167c15.113,12.302 18.504,40.244 37.082,48.648c27.737,12.547 102.13,18.104 129.34,26.636c13.319,4.177 26.942,12.468 33.918,24.558c8.208,14.225 -0.455,47.097 15.33,60.795c17.661,15.326 68.882,12.825 90.639,31.161c21.757,18.335 27.75,59.321 39.903,78.851c8.91,14.318 18.368,32.784 33.019,38.329c14.65,5.546 38.167,-12.569 54.883,-5.056c16.716,7.512 37.885,28.877 45.411,50.131c10.006,28.263 -0.128,96.86 14.629,119.446c13.791,21.107 59.046,7.871 73.912,16.07c10.647,5.872 13.726,21.064 15.282,33.123c3.391,26.273 5.095,87.372 5.059,124.514c-0.032,32.828 1.508,72.092 -5.274,98.342c-5.75,22.252 -12.574,61.657 -35.42,59.156c-128.311,-14.044 -501.835,-114.131 -734.445,-143.423c-218.939,-27.571 -441.055,-47.282 -661.216,-32.331c-259.959,17.654 -651.219,82.358 -898.535,138.254c-200.821,45.387 -471.097,152.874 -585.361,197.121c-37.71,14.602 -63.058,52.421 -100.224,68.358c-54.826,23.509 -228.728,72.697 -228.728,72.697c-0,-0 173.902,-49.188 228.728,-72.697c37.166,-15.937 62.514,-53.756 100.224,-68.358c114.264,-44.247 384.54,-151.734 585.361,-197.121c247.316,-55.896 638.576,-120.6 898.535,-138.254c220.161,-14.951 442.277,4.76 661.216,32.331c232.61,29.292 554.649,99.681 734.445,143.423c117.998,28.708 229.553,79.353 344.329,119.03" style="fill:#a742ad;stroke:#fff;stroke-width:4.17px;"/></svg>