<?xml version="1.0" encoding="UTF-8" standalone="no"?>
<!DOCTYPE svg PUBLIC "-//W3C//DTD SVG 1.1//EN" "http://www.w3.org/Graphics/SVG/1.1/DTD/svg11.dtd">
<svg width="100%" height="100%" viewBox="0 0 631 261" version="1.1" xmlns="http://www.w3.org/2000/svg" xmlns:xlink="http://www.w3.org/1999/xlink" xml:space="preserve" xmlns:serif="http://www.serif.com/" style="fill-rule:evenodd;clip-rule:evenodd;stroke-miterlimit:10;">
    <g id="Artboard1" transform="matrix(0.363742,0,0,0.167962,644.188,52.0681)">
        <rect x="-1771" y="-310" width="1732" height="1550.16" style="fill:none;"/>
        <clipPath id="_clip1">
            <rect x="-1771" y="-310" width="1732" height="1550.16"/>
        </clipPath>
        <g clip-path="url(#_clip1)">
            <g transform="matrix(2.67736,0,0,5.79816,-2979.87,-1606.92)">
                <text x="517px" y="472.815px" style="font-family:'ArialMT', 'Arial', sans-serif;font-size:50px;">Brain slice</text>
                <text x="761.531px" y="472.815px" style="font-family:'Arial-ItalicMT', 'Arial', sans-serif;font-style:italic;font-size:50px;">(danio rerio</text>
                <text x="1014.44px" y="472.815px" style="font-family:'ArialMT', 'Arial', sans-serif;font-size:50px;">)</text>
            </g>
            <g transform="matrix(0.719401,0,0,1.55796,-1642.88,-1091.21)">
                <g transform="matrix(4.16667,0,0,4.16667,628.819,921.787)">
                    <path d="M0,-19.519L0,-23.422L-1.952,-28.107L-5.465,-31.23L-8.198,-31.23L-8.198,-36.305L-8.198,-40.599L-8.198,-46.455L-13.272,-51.529L-17.957,-57.384L-26.545,-57.384L-34.352,-60.117L-46.454,-60.117L-56.603,-60.117L-65.581,-57.775L-76.511,-51.919L-84.709,-46.844L-92.907,-42.161L-100.324,-35.524L-106.179,-29.278L-108.131,-25.765L-108.131,-10.54L-106.179,-6.031L-100.714,-1.953L-96.03,1.561L-92.517,5.464L-90.955,7.806L-94.078,7.806L-98.372,7.806L-103.837,1.951L-108.131,-0.391L-111.254,-1.953L-114.767,-1.953L-121.403,3.123L-126.478,7.806L-132.333,15.614L-134.676,19.517L-134.676,28.886L-131.553,34.742L-126.478,39.426L-119.842,42.159L-105.398,42.159L-98.372,38.255L-92.126,33.18L-87.832,28.886L-81.977,24.983L-78.073,23.811L-73.389,24.983L-67.338,27.715L-62.068,30.448L-34.352,30.448L-28.106,31.228L-25.764,32.79L-22.641,30.057L-20.299,27.715L-12.882,27.325L-9.759,26.154L-6.246,24.592L0,26.544L-1.952,31.228L-2.342,36.694L0,39.036L5.465,39.816L8.588,37.865L11.711,32.009L14.053,36.694L14.053,46.843L17.566,46.843L19.518,42.939L21.86,46.843L25.764,53.87L30.448,62.848L34.352,66.361L41.379,70.265L52.699,74.169L76.121,74.169L90.092,71.045L94.468,68.704L97.201,59.725L97.201,48.405L95.639,33.18L90.092,27.715L90.092,23.811L93.297,22.64L95.639,25.373L97.201,30.838L99.543,35.522L108.912,38.255L118.28,38.255L124.917,40.597L132.334,44.891L140.531,48.014L150.29,51.137L161.221,51.527L178.006,50.747L205.723,48.794L217.043,46.453L233.438,40.988L240.855,36.694L251.785,27.325L266.619,17.956L279.11,12.491L293.164,10.149L306.827,10.929L325.174,10.539L321.66,-41.77L301.361,-41.77L284.966,-43.331L268.181,-45.673L256.86,-46.455L252.956,-46.064L250.614,-42.55L253.347,-37.476L255.299,-33.962L254.128,-29.668L247.101,-23.033L239.294,-17.177L235,-13.273L224.46,-10.15L213.92,-6.031L202.989,-8.588L198.306,-9.76L205.332,-13.273L208.455,-12.102L211.578,-9.76L216.652,-10.15L225.631,-12.883L233.438,-17.567L238.903,-23.422L239.294,-38.647L231.096,-44.893L226.021,-42.161L216.652,-41.379L211.968,-49.187L209.626,-51.138L195.183,-50.358L191.278,-49.967L182.69,-41.379L175.273,-34.744L170.979,-27.327L170.979,-23.422L172.932,-20.69L169.418,-19.128L161.221,-17.567L157.317,-19.91L156.536,-22.642L159.659,-24.594L167.856,-33.962L176.055,-43.721L182.69,-51.919L188.156,-60.117L189.718,-71.828L186.984,-76.512L174.884,-83.929L163.953,-88.223L150.681,-91.346L139.751,-93.688L131.943,-93.688L113.986,-90.566L106.57,-84.32L103.447,-79.245L103.447,-59.727L103.056,-53.481L104.228,-51.529L105.398,-47.625L110.473,-40.989L102.666,-46.844L90.092,-49.967L83.538,-47.625L76.512,-43.721L75.731,-39.038L82.757,-33.572L90.092,-31.621L105.008,-26.155L114.377,-23.033L118.671,-17.567L117.5,-15.616L112.815,-16.396L105.789,-19.91L98.372,-22.642L95.249,-23.813L86.661,-24.594L76.902,-24.594L70.266,-23.033L63.239,-21.081L55.432,-16.787L50.748,-16.787L45.673,-21.471L40.208,-25.374L42.94,-26.936L46.844,-23.422L52.699,-22.251L58.555,-23.422L60.116,-26.155L57.774,-30.45L62.458,-33.182L72.608,-38.647L99.153,-54.261L99.934,-58.946L99.934,-64.801L95.249,-66.753L90.092,-66.753L90.092,-72.609L85.49,-76.512L77.683,-76.903L67.533,-76.512L56.212,-74.17L48.795,-69.876L37.865,-62.459L30.448,-53.872L27.716,-48.796L28.887,-44.112L33.181,-42.161L33.571,-35.524L25.764,-37.476L19.518,-40.599L14.053,-49.577L9.369,-56.604L-4.294,-64.021L-9.369,-65.582L-17.566,-65.972L-18.737,-63.24L-14.443,-59.727L-7.026,-54.261L-3.513,-49.577L0.781,-39.818L2.342,-33.962L3.513,-26.936L3.513,-18.739L0,-19.519Z" style="fill:rgb(226,227,230);fill-rule:nonzero;stroke:rgb(128,130,133);stroke-width:3.82px;"/>
                </g>
                <g transform="matrix(4.16667,0,0,4.16667,1005.89,1052.63)">
                    <path d="M0,-5.548L-9.312,-12.483L-20.407,-23.577L-33.929,-33.98L-49.879,-39.873L-73.803,-47.154L-87.325,-47.154L-102.234,-48.542L-123.732,-46.114L-144.535,-40.914L-160.832,-34.673L-175.741,-27.045L-179.555,-23.231L-179.555,-17.336L-174.701,-12.829L-168.113,-5.548L-154.59,-1.04L-130.667,-1.04L-117.837,0.693L-107.782,-2.774L-99.461,-4.507L-91.833,-3.467L-92.873,6.241L-80.044,11.789L-70.335,20.804L-56.813,34.673L-42.598,42.994L-6.884,42.994L3.17,38.834L8.718,24.271L8.718,10.402L4.874,-1.387L0,-5.548Z" style="fill:none;fill-rule:nonzero;stroke:rgb(237,28,36);stroke-width:7.64px;stroke-dasharray:11.46,11.46;"/>
                </g>
                <g transform="matrix(4.16667,0,0,4.16667,-190,-1641)">
                    <text x="72.035px" y="640.906px" style="font-family:'Helvetica-Bold', 'Helvetica';font-weight:700;font-size:14.038px;fill:rgb(35,31,32);">OB</text>
                </g>
                <g transform="matrix(4.16667,0,0,4.16667,-190,-1641)">
                    <text x="128.115px" y="586.904px" style="font-family:'Helvetica-Bold', 'Helvetica';font-weight:700;font-size:14.038px;fill:rgb(35,31,32);">T</text>
                    <text x="135.64px" y="586.904px" style="font-family:'Helvetica-Bold', 'Helvetica';font-weight:700;font-size:14.038px;fill:rgb(35,31,32);">e</text>
                    <text x="143.447px" y="586.904px" style="font-family:'Helvetica-Bold', 'Helvetica';font-weight:700;font-size:14.038px;fill:rgb(35,31,32);">l</text>
                </g>
                <g transform="matrix(4.16667,0,0,4.16667,-190,-1641)">
                    <text x="241.09px" y="561.131px" style="font-family:'Helvetica-Bold', 'Helvetica';font-weight:700;font-size:14.038px;fill:rgb(35,31,32);">O</text>
                    <text x="252.008px" y="561.131px" style="font-family:'Helvetica-Bold', 'Helvetica';font-weight:700;font-size:14.038px;fill:rgb(35,31,32);">T</text>
                    <text x="259.533px" y="561.131px" style="font-family:'Helvetica-Bold', 'Helvetica';font-weight:700;font-size:14.038px;fill:rgb(35,31,32);">ec</text>
                </g>
                <g transform="matrix(4.16667,0,0,4.16667,-190,-1641)">
                    <text x="317.314px" y="554.687px" style="font-family:'Helvetica-Bold', 'Helvetica';font-weight:700;font-size:14.038px;fill:rgb(35,31,32);">Cereb</text>
                </g>
                <g transform="matrix(4.16667,0,0,4.16667,-190,-1641)">
                    <text x="140.819px" y="634.463px" style="font-family:'Helvetica-Bold', 'Helvetica';font-weight:700;font-size:14.038px;fill:rgb(35,31,32);">POA</text>
                </g>
                <g transform="matrix(4.16667,0,0,4.16667,-190,-1641)">
                    <text x="236.892px" y="664.518px" style="font-family:'Helvetica-Bold', 'Helvetica';font-weight:700;font-size:14.038px;fill:rgb(35,31,32);">Hypo</text>
                </g>
            </g>
        </g>
    </g>
</svg>
